<svg xmlns="http://www.w3.org/2000/svg" width="53.87" height="43.61" viewBox="0 0 450 550">
    <path
        d="M300.777 64.25c-.244 22.138-.347 66.125-.228 97.75.159 42.344-.073 56.841-.879 55-.602-1.375-3.382-5.65-6.177-9.5-6.271-8.639-12.937-18.523-22.585-33.493-7.705-11.954-32.915-49.907-37.202-56.007-4.017-5.716-20.747-31.513-29.658-45.733-4.66-7.437-8.745-12.954-9.325-12.596-.598.37-.73.149-.314-.523.394-.639-.211-2.466-1.346-4.059-1.135-1.594-2.063-3.155-2.063-3.469 0-.315-.843-1.958-1.873-3.652l-1.874-3.081-4.729 9.722c-2.601 5.346-5.31 11.334-6.02 13.306-.711 1.972-4.489 10.453-8.398 18.847-7.79 16.731-7.714 16.489-5.705 18.156.77.639 3.925 5.307 7.011 10.372 3.086 5.066 7.518 11.931 9.849 15.256 2.332 3.325 8.468 12.55 13.636 20.5 5.169 7.95 11.469 17.512 14 21.249 2.532 3.737 5.728 8.558 7.103 10.712 1.375 2.155 8.618 13.047 16.096 24.205 7.477 11.159 18.471 27.713 24.431 36.788 14.558 22.168 28.676 43.359 36.976 55.5 3.76 5.5 12.641 18.67 19.734 29.267 7.094 10.597 13.312 19.011 13.819 18.698.507-.313.7.017.429.733-.271.716 5.331 9.852 12.449 20.302 7.118 10.45 20.276 29.913 29.241 43.25 8.964 13.338 16.53 24.25 16.812 24.25.282 0 .396-89.437.254-198.75-.143-109.312-.255-202.013-.25-206L384 24h-82.78l-.443 40.25M55.718 332.75c.12 107.112.232 195.538.25 196.5.03 1.636 2.544 1.75 38.532 1.75H133V336.563l3.582 5.726c2.051 3.279 4.041 5.444 4.655 5.065.62-.384.782-.194.385.449-.901 1.458 14.344 24.336 15.67 23.517.6-.371.708-.13.264.589-.456.738 2.301 5.826 6.99 12.904 22.123 33.393 47.408 72.052 54.082 82.687 4.142 6.6 11.526 18.075 16.409 25.5 4.883 7.425 10.336 16.061 12.119 19.192l3.242 5.692 2.793-5.692c1.536-3.131 3.278-7.433 3.871-9.56.593-2.128 2.59-6.973 4.437-10.769 1.847-3.795 3.902-8.548 4.567-10.562.664-2.014 2.721-6.244 4.571-9.4 1.85-3.155 3.363-6.308 3.363-7.005 0-.697.915-2.241 2.033-3.431 1.808-1.924 1.863-2.306.5-3.437-.843-.7-1.548-1.78-1.565-2.4-.018-.621-3.586-6.303-7.929-12.628-11.497-16.745-41.233-60.862-58.581-86.912-8.273-12.424-17.723-26.333-21-30.91-3.277-4.576-6.512-9.301-7.189-10.5-.677-1.198-5.254-8.028-10.171-15.178a6266.874 6266.874 0 0 1-19.769-28.979c-5.956-8.788-13.264-19.363-16.24-23.5-2.976-4.136-8.587-12.246-12.469-18.021-3.883-5.775-9.66-14.067-12.839-18.427-3.18-4.36-5.781-8.507-5.781-9.215 0-.709-1.284-2.767-2.854-4.573-1.57-1.807-6.775-9.135-11.567-16.285-26.332-39.292-28.665-42.481-31.079-42.491-1.994-.009-1.999.582-1.782 194.741"
        fill="#8b5cf6" />
</svg>